<svg data-v-0dd9719b="" version="1.0" xmlns="http://www.w3.org/2000/svg" xmlns:xlink="http://www.w3.org/1999/xlink" width="100%" height="100%" viewBox="0 0 340.000000 250.000000" preserveAspectRatio="xMidYMid meet" color-interpolation-filters="sRGB" style="margin: auto;"> <rect data-v-0dd9719b="" x="0" y="0" width="100%" height="100%" fill="#ffffff" fill-opacity="1" class="background"></rect> <rect data-v-0dd9719b="" x="0" y="0" width="100%" height="100%" fill="url(#watermark)" fill-opacity="1" class="watermarklayer"></rect> <g data-v-0dd9719b="" fill="#557341" class="icon-text-wrapper icon-svg-group iconsvg" transform="translate(74.73500061035156,98.5)"><g fill="#9e7b4b" class="iconsvg-imagesvg icon_container" transform="translate(0,0)"><rect fill="#557341" fill-opacity="0" stroke-width="2" x="0" y="0" width="53" height="53" class="image-rect"></rect> <svg viewBox="0 0 60 60" x="0" y="0" width="53" height="53" class="image-svg-svg bn" style="overflow: visible;"><g hollow-target="iconBnFill" mask="url(#44964ea8-04d9-49a7-a71f-14fc0982f1a9)"><g><svg viewBox="0 0 100 100" xmlns="http://www.w3.org/2000/svg" style="overflow: visible;" width="60" height="60" x="0" y="0" filtersec="colorsf9409083491" filter="url(#GgzlEPDQcsuuZvTjutwDe)"><g transform="scale(1, 1) skewX(0)"><path d="M0 0h70c16.569 0 30 13.431 30 30v70H30C13.431 100 0 86.569 0 70V0z" fill="#333" fill-rule="evenodd"></path></g><defs><filter id="GgzlEPDQcsuuZvTjutwDe"><feColorMatrix type="matrix" values="0 0 0 0 0.6171875  0 0 0 0 0.48046875  0 0 0 0 0.29296875  0 0 0 1 0"></feColorMatrix></filter></defs></svg></g> <g filter="url(#colors4992219857)"><svg xmlns="http://www.w3.org/2000/svg" xmlns:xlink="http://www.w3.org/1999/xlink" viewBox="0 0 42.76800000000001 48.02400000000001" width="42" height="42" x="9" y="9" class="image-svg-letter"><path transform="translate(-4.896000000000001 48.02400000000001)" d="M31.46 0L4.90 0L4.90-48.02L32.04-48.02Q38.45-48.02 41.33-46.51L41.33-46.51Q44.71-44.86 46.44-40.97L46.44-40.97Q47.66-38.30 47.66-35.42L47.66-35.42Q47.66-31.68 45.68-28.44Q43.70-25.20 40.68-23.98L40.68-23.98Q47.66-20.81 47.66-12.67L47.66-12.67Q47.66-7.99 45.43-4.82L45.43-4.82Q43.49-2.09 40.46-1.04Q37.44 0 31.46 0L31.46 0ZM15.12-39.46L15.12-28.30L29.02-28.30Q31.25-28.30 32.22-28.51Q33.19-28.73 34.13-29.45L34.13-29.45Q36.36-31.18 36.36-34.20L36.36-34.20Q36.36-37.08 34.27-38.45L34.27-38.45Q32.76-39.46 29.23-39.46L29.23-39.46L15.12-39.46ZM15.12-19.73L15.12-8.57L29.02-8.57Q31.25-8.57 32.26-8.78Q33.26-9.00 34.13-9.72L34.13-9.72Q36.36-11.45 36.36-14.47L36.36-14.47Q36.36-17.35 34.27-18.72L34.27-18.72Q32.76-19.73 29.23-19.73L29.23-19.73L15.12-19.73Z"></path></svg></g></g><mask id="44964ea8-04d9-49a7-a71f-14fc0982f1a9"><g fill="white"><svg viewBox="0 0 100 100" xmlns="http://www.w3.org/2000/svg" style="overflow: visible;" width="60" height="60" x="0" y="0" filtersec="colorsf9409083491"><g transform="scale(1, 1) skewX(0)"><path d="M0 0h70c16.569 0 30 13.431 30 30v70H30C13.431 100 0 86.569 0 70V0z" fill-rule="evenodd"></path></g><defs></defs></svg></g> <g fill="black"><svg xmlns="http://www.w3.org/2000/svg" xmlns:xlink="http://www.w3.org/1999/xlink" viewBox="0 0 42.76800000000001 48.02400000000001" width="42" height="42" x="9" y="9" class="image-svg-letter"><path transform="translate(-4.896000000000001 48.02400000000001)" d="M31.46 0L4.90 0L4.90-48.02L32.04-48.02Q38.45-48.02 41.33-46.51L41.33-46.51Q44.71-44.86 46.44-40.97L46.44-40.97Q47.66-38.30 47.66-35.42L47.66-35.42Q47.66-31.68 45.68-28.44Q43.70-25.20 40.68-23.98L40.68-23.98Q47.66-20.81 47.66-12.67L47.66-12.67Q47.66-7.99 45.43-4.82L45.43-4.82Q43.49-2.09 40.46-1.04Q37.44 0 31.46 0L31.46 0ZM15.12-39.46L15.12-28.30L29.02-28.30Q31.25-28.30 32.22-28.51Q33.19-28.73 34.13-29.45L34.13-29.45Q36.36-31.18 36.36-34.20L36.36-34.20Q36.36-37.08 34.27-38.45L34.27-38.45Q32.76-39.46 29.23-39.46L29.23-39.46L15.12-39.46ZM15.12-19.73L15.12-8.57L29.02-8.57Q31.25-8.57 32.26-8.78Q33.26-9.00 34.13-9.72L34.13-9.72Q36.36-11.45 36.36-14.47L36.36-14.47Q36.36-17.35 34.27-18.72L34.27-18.72Q32.76-19.73 29.23-19.73L29.23-19.73L15.12-19.73Z"></path></svg></g></mask></svg> <defs><filter id="colors4992219857"><feColorMatrix type="matrix" values="0 0 0 0 0.33203125  0 0 0 0 0.44921875  0 0 0 0 0.25390625  0 0 0 1 0" class="icon-fecolormatrix"></feColorMatrix></filter> <filter id="colorsf9409083491"><feColorMatrix type="matrix" values="0 0 0 0 0.99609375  0 0 0 0 0.99609375  0 0 0 0 0.99609375  0 0 0 1 0" class="icon-fecolormatrix"></feColorMatrix></filter> <filter id="colorsb7624861356"><feColorMatrix type="matrix" values="0 0 0 0 0  0 0 0 0 0  0 0 0 0 0  0 0 0 1 0" class="icon-fecolormatrix"></feColorMatrix></filter></defs></g> <g transform="translate(60,6.395936965942383)"><g data-gra="path-name" fill-rule="" class="tp-name iconsvg-namesvg" transform="translate(0,0)"><g transform="scale(1)"><g><path d="M24.52-3.06L31.93-3.06 30.74-0.07 23-0.07 21.89-0.07Q21.17-0.07 20.56-0.34 19.94-0.61 19.48-1.06 19.01-1.51 18.74-2.12 18.47-2.74 18.47-3.46L18.47-3.46 18.47-25.96 23.4-25.96 23.4-20.74 31.5-20.74 31.5-17.21 23.4-17.21 23.4-4.18Q23.4-3.71 23.72-3.38 24.05-3.06 24.52-3.06L24.52-3.06ZM1.19-6.44L9.25-8.24 9.25-17.21 1.69-17.21 1.69-20.74 9.25-20.74 9.25-25.96 14.22-25.96 14.22 0.04 9.25 0.04 9.25-4.75 1.19-2.95 1.19-6.44ZM59.76-7.88L52.6-7.88 52.6-3.89Q52.6-3.06 52.29-2.36 51.98-1.66 51.44-1.12 50.9-0.58 50.18-0.27 49.46 0.04 48.64 0.04L48.64 0.04 43.96 0.04 45.36-3.06 46.48-3.06Q46.94-3.06 47.27-3.38 47.59-3.71 47.59-4.18L47.59-4.18 47.59-7.88 35.53-7.88 35.53-18.76 63.72-18.76 63.72-11.84Q63.72-11.02 63.41-10.3 63.11-9.58 62.57-9.04 62.03-8.5 61.31-8.19 60.59-7.88 59.76-7.88L59.76-7.88ZM40.14-15.62L40.14-11.05 57.6-11.05Q58.07-11.05 58.39-11.38 58.72-11.7 58.72-12.17L58.72-12.17 58.72-15.62 40.14-15.62ZM33.8-20.48L33.8-24.05 47.66-24.05 46.94-25.96 52.34-25.96 53.03-24.05 65.45-24.05 65.45-20.48 33.8-20.48ZM58.21-6.41L62.86-6.41 65.56 0.04 60.91 0.04 58.21-6.41ZM33.8 0.04L36.5-6.41 41.15-6.41 38.48 0.04 33.8 0.04ZM77.72-18.65L77.72-12.35 76.54-9.83 78.77-9.83 82.73-1.44 88.7-13.72 88.7-18.65 92.66-18.65 90.83-22.9 74.88-22.9 72.22-17.32 67-17.32 71.03-25.96 76.36-25.96 76.36-25.96 94.46-25.96 98.64-16.99 93.42-16.99 92.84-18.29 92.84-12.35 91.66-9.83 93.89-9.83 98.5-0.04 93.92-0.04 90.47-7.31 87.01 0.04 82.01 0.04 82.04-0.04 78.8-0.04 75.35-7.31 71.89 0.04 66.92 0.04 73.58-13.72 73.58-18.65 77.72-18.65ZM131.58-5.83L128.23-5.83 131.72 0 126.68 0 123.48-5.33 118.98 0 113.51 0 118.3-5.83 114.05-5.83 114.05-20.27 118.37-20.27 119.34-22.39 113.51-22.39 113.51-25.96 131.72-25.96 131.72-22.39 124.13-22.39 123.19-20.27 127.62-20.27Q128.41-20.27 129.13-19.96 129.85-19.66 130.39-19.12 130.93-18.58 131.26-17.86 131.58-17.14 131.58-16.34L131.58-16.34 131.58-5.83ZM124.34-6.34L126.97-6.34 126.97-15.59Q126.97-16.06 126.65-16.38 126.32-16.7 125.86-16.7L125.86-16.7 118.66-16.7 118.66-6.26 120.49-8.53 120.49-14.36 125.03-14.36 125.03-7.2 124.34-6.34ZM112.79-21.28L107.39-21.28 106.27-17.03 112.57-17.03 112.57-4.72Q112.57-3.89 112.25-3.17 111.92-2.45 111.38-1.91 110.84-1.37 110.12-1.06 109.4-0.76 108.61-0.76L108.61-0.76 101.66-0.76 101.66-11.02 100.12-11.02 102.71-21.28 100.33-21.28 100.33-24.84 112.79-24.84 112.79-21.28ZM108.36-5.47L108.36-13.46 105.88-13.46 105.88-4.32 106.85-4.32Q107.32-4.32 107.84-4.64 108.36-4.97 108.36-5.47L108.36-5.47Z" transform="translate(-1.190000057220459, 25.959999084472656)"></path></g> <!----> <!----> <!----> <!----> <!----> <!----> <!----></g></g> <g data-gra="path-slogan" fill-rule="" class="tp-slogan iconsvg-slogansvg" fill="#9e7b4b" transform="translate(7.409999847412109,34)"><rect width="0"></rect> <rect x="118.70999908447266" width="1.8199996948242188"></rect> <g transform="translate(0,0)"><g transform="scale(1)"><path d="M3.78-7.00L1.89-7.00L1.89-4.55L3.78-4.55Q5.46-4.51 5.41-5.84L5.41-5.84Q5.41-7.00 3.78-7.00L3.78-7.00ZM4.21 0L0.82 0L0.82-7.86L4.30-7.86Q6.40-7.78 6.49-5.89L6.49-5.89Q6.49-4.73 5.46-4.25L5.46-4.25Q6.92-3.74 6.92-2.32L6.92-2.32Q6.79-0.09 4.21 0L4.21 0ZM3.95-3.65L1.89-3.65L1.89-0.90L4.17-0.90Q5.80-0.95 5.84-2.32L5.84-2.32Q5.84-3.65 3.95-3.65L3.95-3.65ZM9.32-0.95L14.05-0.95L14.05 0L8.25 0L8.25-7.86L13.96-7.86L13.96-6.96L9.32-6.96L9.32-4.51L13.62-4.51L13.62-3.57L9.32-3.57L9.32-0.95ZM15.60-7.86L16.67-7.86L16.67 0L15.60 0L15.60-7.86ZM17.83-1.76L17.83-2.54L18.82-2.54L18.82-1.98Q18.82-0.69 20.02-0.69L20.02-0.69Q21.27-0.69 21.27-2.06L21.27-2.06L21.27-7.86L22.34-7.86L22.34-2.11Q22.30 0.09 20.07 0.13L20.07 0.13Q17.96 0.09 17.83-1.76L17.83-1.76ZM24.15-7.86L25.22-7.86L25.22 0L24.15 0L24.15-7.86ZM28.32-7.86L32.27-1.50L32.27-7.86L33.30-7.86L33.30 0L32.10 0L28.10-6.36L28.06-6.36L28.06 0L27.03 0L27.03-7.86L28.32-7.86ZM40.82-3.31L38.41-3.31L38.41-4.21L41.85-4.21L41.85 0L41.16 0L40.91-0.99Q40.00 0.09 38.33 0.13L38.33 0.13Q36.74 0.13 35.88-0.69L35.88-0.69Q34.59-1.89 34.63-4.00L34.63-4.00Q34.93-7.91 38.37-8.08L38.37-8.08Q41.29-7.91 41.72-5.50L41.72-5.50L40.69-5.50Q40.26-7.13 38.33-7.18L38.33-7.18Q35.88-7.00 35.75-3.95L35.75-3.95Q35.75-0.69 38.37-0.69L38.37-0.69Q39.32-0.69 40.00-1.20L40.00-1.20Q40.86-1.89 40.82-3.31L40.82-3.31ZM47.31-0.95L52.16-0.95L52.16 0L45.98 0L45.98-0.86L50.79-6.96L46.32-6.96L46.32-7.86L52.16-7.86L52.16-6.96L47.31-0.95ZM54.27-4.64L58.39-4.64L58.39-7.86L59.47-7.86L59.47 0L58.39 0L58.39-3.65L54.27-3.65L54.27 0L53.20 0L53.20-7.86L54.27-7.86L54.27-4.64ZM67.33-3.91L67.33-3.91Q67.16-7.00 64.58-7.18L64.58-7.18Q61.96-7.05 61.83-3.91L61.83-3.91Q61.96-0.86 64.58-0.73L64.58-0.73Q67.16-0.90 67.33-3.91ZM68.41-3.91L68.41-3.91Q68.15 0 64.58 0.13L64.58 0.13Q60.97 0 60.71-3.91L60.71-3.91Q60.93-7.99 64.58-8.08L64.58-8.08Q68.15-7.95 68.41-3.91ZM70.94-7.86L74.89-1.50L74.89-7.86L75.93-7.86L75.93 0L74.72 0L70.73-6.36L70.68-6.36L70.68 0L69.65 0L69.65-7.86L70.94-7.86ZM83.45-3.31L81.04-3.31L81.04-4.21L84.48-4.21L84.48 0L83.79 0L83.53-0.99Q82.63 0.09 80.95 0.13L80.95 0.13Q79.36 0.13 78.50-0.69L78.50-0.69Q77.21-1.89 77.26-4.00L77.26-4.00Q77.56-7.91 81.00-8.08L81.00-8.08Q83.92-7.91 84.35-5.50L84.35-5.50L83.32-5.50Q82.89-7.13 80.95-7.18L80.95-7.18Q78.50-7.00 78.38-3.95L78.38-3.95Q78.38-0.69 81.00-0.69L81.00-0.69Q81.94-0.69 82.63-1.20L82.63-1.20Q83.49-1.89 83.45-3.31L83.45-3.31ZM91.87-5.59L91.87-5.59L90.88-5.59Q90.79-7.09 88.90-7.18L88.90-7.18Q87.14-7.13 87.14-5.80L87.14-5.80Q87.14-4.94 88.09-4.81L88.09-4.81L90.32-4.30Q92.08-3.87 92.08-2.15L92.08-2.15Q92.04 0.04 88.99 0.13L88.99 0.13Q87.31 0.13 86.63-0.56L86.63-0.56Q85.77-1.20 85.81-2.54L85.81-2.54L86.84-2.54Q86.88-0.73 88.99-0.69L88.99-0.69Q91.05-0.73 91.09-2.02L91.09-2.02Q91.27-3.09 89.38-3.44L89.38-3.44L87.74-3.78Q86.07-4.25 86.07-5.67L86.07-5.67Q86.20-7.99 88.82-8.08L88.82-8.08Q91.78-8.08 91.87-5.59ZM94.49-4.64L98.61-4.64L98.61-7.86L99.69-7.86L99.69 0L98.61 0L98.61-3.65L94.49-3.65L94.49 0L93.41 0L93.41-7.86L94.49-7.86L94.49-4.64ZM106.52-2.92L106.52-7.86L107.59-7.86L107.59-2.79Q107.46 0.04 104.37 0.13L104.37 0.13Q101.49 0.04 101.36-2.62L101.36-2.62L101.36-7.86L102.44-7.86L102.44-2.92Q102.48-0.77 104.41-0.73L104.41-0.73Q106.52-0.77 106.52-2.92L106.52-2.92ZM115.46-3.91L115.46-3.91Q115.29-7.00 112.71-7.18L112.71-7.18Q110.09-7.05 109.96-3.91L109.96-3.91Q110.09-0.86 112.71-0.73L112.71-0.73Q115.29-0.90 115.46-3.91ZM116.53-3.91L116.53-3.91Q116.27 0 112.71 0.13L112.71 0.13Q109.10 0 108.84-3.91L108.84-3.91Q109.05-7.99 112.71-8.08L112.71-8.08Q116.27-7.95 116.53-3.91Z" transform="translate(-0.81640625, 8.078125)"></path></g></g></g></g></g><defs v-gra="od"></defs></svg>